<svg width="20" height="20" viewBox="0 0 20 20" fill="none" xmlns="http://www.w3.org/2000/svg">
<mask id="mask0_2212_10125" style="mask-type:alpha" maskUnits="userSpaceOnUse" x="0" y="0" width="20" height="20">
<rect width="20" height="20" fill="#D9D9D9"/>
</mask>
<g mask="url(#mask0_2212_10125)">
<path d="M9.99967 14.5508L6.69197 15.9706C6.18988 16.1854 5.71287 16.1442 5.26092 15.8473C4.80898 15.5504 4.58301 15.1326 4.58301 14.5942V4.42272C4.58301 4.00175 4.72884 3.64543 5.02051 3.35376C5.31217 3.06209 5.66849 2.91626 6.08947 2.91626H13.9099C14.3309 2.91626 14.6872 3.06209 14.9788 3.35376C15.2705 3.64543 15.4163 4.00175 15.4163 4.42272V14.5942C15.4163 15.1326 15.1904 15.5504 14.7384 15.8473C14.2865 16.1442 13.8095 16.1854 13.3074 15.9706L9.99967 14.5508ZM9.99967 13.1663L13.8057 14.8056C13.8913 14.843 13.9727 14.835 14.0501 14.7817C14.1276 14.7282 14.1663 14.6561 14.1663 14.5652V4.42272C14.1663 4.35855 14.1396 4.2998 14.0861 4.24647C14.0328 4.193 13.974 4.16626 13.9099 4.16626H6.08947C6.0253 4.16626 5.96655 4.193 5.91322 4.24647C5.85974 4.2998 5.83301 4.35855 5.83301 4.42272V14.5652C5.83301 14.6561 5.87176 14.7282 5.94926 14.7817C6.02662 14.835 6.10808 14.843 6.19363 14.8056L9.99967 13.1663Z" fill="#6C6C6A"/>
</g>
</svg>
