<svg width="20" height="20" viewBox="0 0 20 20" fill="none" xmlns="http://www.w3.org/2000/svg">
<mask id="mask0_2212_10121" style="mask-type:alpha" maskUnits="userSpaceOnUse" x="0" y="0" width="20" height="20">
<rect x="0.5" y="0.5" width="19" height="19" fill="#D9D9D9" stroke="#ADADAD"/>
</mask>
<g mask="url(#mask0_2212_10121)">
<path d="M11.8634 15.0592L11.8618 15.0677C11.8041 15.3898 11.7756 15.5911 11.7756 15.673C11.7756 16.293 11.9919 16.8195 12.4248 17.2534C12.8579 17.6872 13.3843 17.9041 14.0047 17.9041C14.6252 17.9041 15.1522 17.6877 15.5863 17.2546C16.0206 16.8217 16.2377 16.2954 16.2377 15.6749C16.2377 15.0544 16.0208 14.5274 15.5869 14.0931C15.1531 13.659 14.6265 13.442 14.0066 13.442C13.6909 13.442 13.3975 13.502 13.1263 13.622C12.8546 13.742 12.619 13.9056 12.4194 14.1128L12.4125 14.1199L12.404 14.1149L6.47778 10.6261L6.46915 10.621L6.47222 10.6115C6.50506 10.5095 6.52759 10.4099 6.53984 10.3125C6.53984 10.3125 6.53984 10.3125 6.53984 10.3125L6.55225 10.3141C6.56447 10.2158 6.57058 10.111 6.57058 9.99992C6.57058 9.88881 6.56447 9.78409 6.55225 9.68575L11.8634 15.0592ZM11.8634 15.0592L11.8559 15.0548L5.92963 11.566L5.92113 11.561L5.91429 11.5681C5.71466 11.7752 5.47746 11.9375 5.20254 12.0549C4.92779 12.1722 4.63335 12.231 4.31912 12.231C3.70146 12.231 3.17681 12.0132 2.74445 11.5776C2.31206 11.1419 2.096 10.6162 2.096 9.99992C2.096 9.38362 2.31206 8.85797 2.74445 8.42226C3.17681 7.98659 3.70146 7.76888 4.31912 7.76888C4.63335 7.76888 4.92779 7.8276 5.20254 7.94496C5.47746 8.06238 5.71466 8.22464 5.91429 8.43172L5.92112 8.43881L5.92962 8.43382L11.8559 4.95299L11.8645 4.94791L11.8614 4.93837C11.8286 4.83655 11.8061 4.7369 11.7938 4.6394C11.7817 4.54164 11.7756 4.43744 11.7756 4.32679C11.7756 3.70688 11.9926 3.18035 12.4267 2.74647C12.861 2.31259 13.388 2.09575 14.0085 2.09575C14.629 2.09575 15.1553 2.31279 15.5882 2.74708L15.597 2.73825L15.5882 2.74708C16.0212 3.18123 16.2377 3.70819 16.2377 4.32867C16.2377 4.94914 16.0208 5.47553 15.587 5.90857C15.1531 6.34148 14.6265 6.55784 14.0066 6.55784C13.6909 6.55784 13.3975 6.49781 13.1263 6.37786C12.8546 6.2578 12.619 6.09421 12.4194 5.88708L12.4125 5.87998L12.404 5.88498L6.47778 9.37373L6.46915 9.37881L6.47222 9.38833C6.50506 9.4903 6.52759 9.58995 6.53984 9.68731L11.8634 15.0592ZM13.2899 14.9563C13.0969 15.1492 13.0004 15.3884 13.0004 15.673C13.0004 15.9577 13.0969 16.1969 13.2899 16.3898C13.4827 16.5827 13.7219 16.6791 14.0066 16.6791C14.2913 16.6791 14.5305 16.5827 14.7234 16.3898L13.2899 14.9563ZM13.2899 14.9563C13.2899 14.9563 13.2899 14.9563 13.2899 14.9563L13.2987 14.9651L13.2899 14.9563ZM13.2899 5.04355C13.4827 5.23656 13.7219 5.33304 14.0066 5.33304C14.2913 5.33304 14.5305 5.23656 14.7234 5.04355C14.9163 4.85067 15.0127 4.61147 15.0127 4.32679C15.0127 4.04212 14.9163 3.80292 14.7234 3.61004C14.5305 3.41716 14.2913 3.32075 14.0066 3.32075C13.7219 3.32075 13.4827 3.41716 13.2899 3.61004C13.0969 3.80291 13.0004 4.04212 13.0004 4.32679C13.0004 4.61147 13.0969 4.85067 13.2899 5.04355ZM13.2899 5.04355L13.2987 5.03471L13.2899 5.04355C13.2899 5.04355 13.2899 5.04355 13.2899 5.04355ZM4.31912 11.006C4.60599 11.006 4.84705 10.9096 5.04147 10.7167V9.28313C5.04147 9.28313 5.04146 9.28313 5.04146 9.28312C4.84705 9.09026 4.60599 8.99388 4.31912 8.99388C4.03664 8.99388 3.7993 9.09031 3.60796 9.2832C3.41662 9.47608 3.321 9.71527 3.321 9.99992C3.321 10.2846 3.41662 10.5238 3.60796 10.7166C3.7993 10.9095 4.03664 11.006 4.31912 11.006Z" fill="#6C6C6A" stroke="#ADADAD" stroke-width="0.025"/>
</g>
</svg>
